<?xml version="1.0" encoding="UTF-8" standalone="no"?>
<!-- Created with Inkscape (http://www.inkscape.org/) -->

<svg
   width="800"
   height="800"
   viewBox="0 0 211.66666 211.66667"
   version="1.1"
   id="svg5"
   xmlns="http://www.w3.org/2000/svg"
   xmlns:svg="http://www.w3.org/2000/svg">
  <defs
     id="defs2">
    <rect
       x="42.426407"
       y="544.47223"
       width="726.90576"
       height="212.13203"
       id="rect1288" />
    <rect
       x="42.426407"
       y="544.47223"
       width="726.90576"
       height="212.13203"
       id="rect12" />
  </defs>
  <rect
     style="display:none;opacity:1;fill:#80ffe6;fill-opacity:1;stroke:#9959b3;stroke-width:0.264583;stroke-opacity:1"
     id="rect2"
     width="295.80417"
     height="249.76666"
     x="-44.714584"
     y="-18.520832" />
  <g
     id="layer1"
     style="display:none">
    <rect
       style="font-variation-settings:'wdth' 88.2, 'wght' 700;display:none;opacity:0.274052;fill:#000000;stroke:none;stroke-width:0.175222;paint-order:markers stroke fill"
       id="rect234"
       width="249.82478"
       height="0.82477927"
       x="-19.07939"
       y="140.08762"
       rx="0.00077282818"
       ry="0.37247565" />
    <path
       id="rect400"
       style="font-variation-settings:'wdth' 88.2, 'wght' 700;display:inline;opacity:1;fill:#ffffff;fill-opacity:1;stroke:none;stroke-width:0.265;stroke-dasharray:none;paint-order:markers stroke fill"
       d="m 33.61435,30.087569 c -6.426524,0 -22.485314,9.125708 -22.485314,26.247503 v 83.410408 c 0,0.18961 1.95e-4,0.34209 5.17e-4,0.34209 h 27.963668 c -1.93041,-3.14166 -2.954477,-6.75595 -2.958992,-10.44329 -1.56e-4,-11.04289 8.951759,-19.99503 19.994645,-19.99516 11.043087,-1.6e-4 19.995318,8.95207 19.995162,19.99516 -0.0045,3.68734 -1.028583,7.30163 -2.958993,10.44329 h 27.963147 c 3.3e-4,0 10e-4,-0.15248 10e-4,-0.34209 V 30.429667 c 0,-0.189611 -7.1e-4,-0.342098 -10e-4,-0.342098 z m 4.520273,5.17e-4 h 35.989018 c 3.45e-4,0 5.17e-4,0.118557 5.17e-4,0.266134 v 49.467264 c 0,0.147577 -1.72e-4,0.266651 -5.17e-4,0.266651 H 38.134623 c -3.45e-4,0 -5.17e-4,-0.119074 -5.17e-4,-0.266651 V 30.35422 c 0,-0.147577 1.72e-4,-0.266134 5.17e-4,-0.266134 z" />
    <rect
       style="font-variation-settings:'wdth' 88.2, 'wght' 700;display:none;opacity:0.274052;fill:#000000;stroke:none;stroke-width:0.591319;paint-order:markers stroke fill"
       id="rect402"
       width="249.40869"
       height="9.4086809"
       x="-230.53767"
       y="101.12899"
       rx="0.00077154097"
       ry="4.2490211"
       transform="rotate(-90)" />
    <path
       id="rect958"
       style="font-variation-settings:'wdth' 88.2, 'wght' 700;opacity:1;fill:#ffffff;fill-opacity:1;stroke:none;stroke-width:0.265;stroke-dasharray:none;paint-order:markers stroke fill"
       d="m 110.53847,30.087569 c -3.2e-4,0 -0.001,0.152487 -0.001,0.342098 V 139.74548 c 0,0.18961 7.4e-4,0.34209 0.001,0.34209 h 27.96315 c -1.9304,-3.14165 -2.95448,-6.75595 -2.95899,-10.44329 -1.6e-4,-11.04308 8.95208,-19.99532 19.99516,-19.99516 11.04288,1.3e-4 19.99481,8.95228 19.99465,19.99516 -0.005,3.68734 -1.02859,7.30164 -2.95899,10.44329 h 27.96366 c 3.3e-4,0 5.2e-4,-0.15248 5.2e-4,-0.34209 v -28.04119 c -3.58994,-8e-5 -6.50007,-2.91044 -6.49986,-6.50038 8e-5,-3.58974 2.91012,-6.49978 6.49986,-6.499857 V 98.516467 C 194.52292,82.799311 176.65137,79.716333 155.53779,80.088135 V 47.300244 c -7.79626,-9.89498 -16.44682,-18.36134 -44.99932,-17.212675 z" />
    <circle
       style="font-variation-settings:'wdth' 88.2, 'wght' 700;display:none;opacity:1;fill:#0000ff;fill-opacity:1;stroke:none;stroke-width:1;paint-order:markers stroke fill"
       id="path1064"
       cx="155.53766"
       cy="129.64421"
       r="19.994877" />
    <circle
       style="font-variation-settings:'wdth' 88.2, 'wght' 700;display:none;opacity:1;fill:#0000ff;fill-opacity:1;stroke:none;stroke-width:1;paint-order:markers stroke fill"
       id="circle1077"
       cx="56.12899"
       cy="129.64421"
       r="19.994877" />
    <g
       id="g1372"
       style="display:inline;fill:#ffffff;fill-opacity:1">
      <circle
         style="font-variation-settings:'wdth' 88.2, 'wght' 700;display:inline;opacity:1;fill:#ffffff;fill-opacity:1;stroke:none;stroke-width:0.250064;paint-order:markers stroke fill"
         id="circle1089"
         cx="56.12899"
         cy="129.64421"
         r="5" />
      <circle
         style="font-variation-settings:'wdth' 88.2, 'wght' 700;display:inline;opacity:1;fill:none;fill-opacity:1;stroke:#ffffff;stroke-width:3;stroke-dasharray:none;stroke-opacity:1;paint-order:markers stroke fill"
         id="circle1091"
         cx="56.12899"
         cy="129.64421"
         r="12" />
      <path
         id="circle1093"
         style="font-variation-settings:'wdth' 88.2, 'wght' 700;display:inline;opacity:1;fill:#ffffff;fill-opacity:1;stroke:none;stroke-width:1;paint-order:markers stroke fill"
         d="m 40.19703,141.70556 a 19.994877,19.994877 0 0 0 15.931844,7.93337 19.994877,19.994877 0 0 0 15.931844,-7.93337 H 68.08525 a 16.995001,16.995001 0 0 1 -11.956376,4.93355 16.995001,16.995001 0 0 1 -11.956376,-4.93355 z" />
    </g>
    <g
       id="g1380"
       transform="translate(99.408785)"
       style="display:inline;fill:#ffffff;fill-opacity:1">
      <circle
         style="font-variation-settings:'wdth' 88.2, 'wght' 700;display:inline;opacity:1;fill:#ffffff;fill-opacity:1;stroke:none;stroke-width:0.250064;paint-order:markers stroke fill"
         id="circle1374"
         cx="56.12899"
         cy="129.64421"
         r="5" />
      <circle
         style="font-variation-settings:'wdth' 88.2, 'wght' 700;display:inline;opacity:1;fill:none;fill-opacity:1;stroke:#ffffff;stroke-width:3;stroke-dasharray:none;stroke-opacity:1;paint-order:markers stroke fill"
         id="circle1376"
         cx="56.12899"
         cy="129.64421"
         r="12" />
      <path
         id="path1378"
         style="font-variation-settings:'wdth' 88.2, 'wght' 700;display:inline;opacity:1;fill:#ffffff;fill-opacity:1;stroke:none;stroke-width:1;paint-order:markers stroke fill"
         d="m 40.19703,141.70556 a 19.994877,19.994877 0 0 0 15.931844,7.93337 19.994877,19.994877 0 0 0 15.931844,-7.93337 H 68.08525 a 16.995001,16.995001 0 0 1 -11.956376,4.93355 16.995001,16.995001 0 0 1 -11.956376,-4.93355 z" />
      <text
         xml:space="preserve"
         transform="matrix(0.26458333,0,0,0.26458333,-100.70199,0)"
         id="text1286"
         style="font-style:normal;font-variant:normal;font-weight:normal;font-stretch:normal;font-size:158.667px;font-family:BLACKPLOTAN;-inkscape-font-specification:'BLACKPLOTAN, Normal';font-variant-ligatures:normal;font-variant-caps:normal;font-variant-numeric:normal;font-variant-east-asian:normal;white-space:pre;shape-inside:url(#rect1288);display:none;opacity:1;fill:#ffffff;fill-opacity:1;stroke:none;stroke-width:3.77953;stroke-opacity:1;paint-order:markers stroke fill"><tspan
           x="42.425781"
           y="901.36024"
           id="tspan3"><tspan
             dx="0 119.23268 43.540451 62.521622 82.664902 100.40646 119.2327 43.540466 92.349121 94.518433"
             id="tspan1">HitchHiker</tspan></tspan></text>
    </g>
    <rect
       style="font-variation-settings:'wdth' 88.2, 'wght' 700;display:none;opacity:1;fill:#0000ff;fill-opacity:1;stroke:none;stroke-width:2.74163;stroke-dasharray:none;stroke-opacity:1;paint-order:markers stroke fill"
       id="rect1486"
       width="35.990002"
       height="50"
       x="38.134132"
       y="30.087999"
       rx="0.00062346464"
       ry="0.26638448" />
    <path
       id="path1656"
       style="font-variation-settings:'wdth' 88.2, 'wght' 700;display:none;opacity:1;fill:#d52a2a;fill-opacity:1;stroke:none;stroke-width:0.831156;paint-order:markers stroke fill"
       d="m 11.129553,30.087569 c -3.22e-4,0 -5.17e-4,0.152487 -5.17e-4,0.342098 v 24.53442 A 50,50 0 0 1 38.134623,30.11134 c 2.8e-5,-0.0017 -3e-5,-0.02325 0,-0.02325 h 0.06563 a 50,50 0 0 1 0.0016,-5.17e-4 z" />
    <path
       style="font-variation-settings:'wdth' 88.2, 'wght' 700;display:none;opacity:0.343096;fill:#ff6600;fill-opacity:1;stroke:none;stroke-width:8.34318;stroke-dasharray:none;stroke-opacity:1;paint-order:markers stroke fill"
       d="m 155.53763,30.087999 h 45 v 50 h -45"
       id="path1836" />
    <circle
       style="font-variation-settings:'wdth' 88.2, 'wght' 700;display:none;opacity:0.343096;fill:#ff6600;fill-opacity:1;stroke:none;stroke-width:2.91884;stroke-dasharray:none;stroke-opacity:1;paint-order:markers stroke fill"
       id="path1893"
       cx="200.53799"
       cy="105.20415"
       r="6.5" />
    <path
       id="circle1907"
       style="font-variation-settings:'wdth' 88.2, 'wght' 700;display:inline;opacity:1;fill:#ffffff;fill-opacity:1;stroke:none;stroke-width:0.265;stroke-dasharray:none;stroke-opacity:1;paint-order:markers stroke fill"
       d="m 202.06725,99.019796 v 3.932064 a 2,3.5 0 0 1 0.47077,2.25205 2,3.5 0 0 1 -0.47077,2.25568 v 3.93309 a 5,6.5 0 0 0 3.47059,-6.18877 5,6.5 0 0 0 -3.47059,-6.184114 z" />
    <text
       xml:space="preserve"
       style="font-style:normal;font-variant:normal;font-weight:normal;font-stretch:normal;font-size:35.2777px;font-family:Elephant;-inkscape-font-specification:'Elephant, Normal';font-variant-ligatures:normal;font-variant-caps:normal;font-variant-numeric:normal;font-variant-east-asian:normal;text-align:start;writing-mode:lr-tb;direction:ltr;text-anchor:start;opacity:1;fill:#ffffff;fill-opacity:1;stroke:#9959b3;stroke-width:0.265;stroke-dasharray:none;stroke-opacity:1"
       x="6.2126908"
       y="177.96443"
       id="text2"><tspan
         id="tspan2"
         style="font-style:normal;font-variant:normal;font-weight:normal;font-stretch:normal;font-size:30.6917px;font-family:'Showcard Gothic';-inkscape-font-specification:'Showcard Gothic, Normal';font-variant-ligatures:normal;font-variant-caps:normal;font-variant-numeric:normal;font-variant-east-asian:normal;fill:#ffffff;fill-opacity:1;stroke:#9959b3;stroke-width:0.265;stroke-dasharray:none;stroke-opacity:1"
         x="6.2126908"
         y="177.96443">Hitch Hiker</tspan></text>
  </g>
  <g
     id="g12"
     transform="translate(-1.129036,16.022451)"
     style="display:inline">
    <rect
       style="font-variation-settings:'wdth' 88.2, 'wght' 700;display:none;opacity:0.274052;fill:#000000;stroke:none;stroke-width:0.175222;paint-order:markers stroke fill"
       id="rect3"
       width="249.82478"
       height="0.82477927"
       x="-19.07939"
       y="140.08762"
       rx="0.00077282818"
       ry="0.37247565" />
    <path
       id="path3"
       style="font-variation-settings:'wdth' 88.2, 'wght' 700;display:inline;opacity:1;fill:#9959b3;fill-opacity:1;stroke:none;stroke-width:0.265;stroke-dasharray:none;paint-order:markers stroke fill"
       d="m 33.61435,30.087569 c -6.426524,0 -22.485314,9.125708 -22.485314,26.247503 v 83.410408 c 0,0.18961 1.95e-4,0.34209 5.17e-4,0.34209 h 27.963668 c -1.93041,-3.14166 -2.954477,-6.75595 -2.958992,-10.44329 -1.56e-4,-11.04289 8.951759,-19.99503 19.994645,-19.99516 11.043087,-1.6e-4 19.995318,8.95207 19.995162,19.99516 -0.0045,3.68734 -1.028583,7.30163 -2.958993,10.44329 h 27.963147 c 3.3e-4,0 10e-4,-0.15248 10e-4,-0.34209 V 30.429667 c 0,-0.189611 -7.1e-4,-0.342098 -10e-4,-0.342098 z m 4.520273,5.17e-4 h 35.989018 c 3.45e-4,0 5.17e-4,0.118557 5.17e-4,0.266134 v 49.467264 c 0,0.147577 -1.72e-4,0.266651 -5.17e-4,0.266651 H 38.134623 c -3.45e-4,0 -5.17e-4,-0.119074 -5.17e-4,-0.266651 V 30.35422 c 0,-0.147577 1.72e-4,-0.266134 5.17e-4,-0.266134 z" />
    <rect
       style="font-variation-settings:'wdth' 88.2, 'wght' 700;display:none;opacity:0.274052;fill:#000000;stroke:none;stroke-width:0.591319;paint-order:markers stroke fill"
       id="rect4"
       width="249.40869"
       height="9.4086809"
       x="-230.53767"
       y="101.12899"
       rx="0.00077154097"
       ry="4.2490211"
       transform="rotate(-90)" />
    <path
       id="path4"
       style="font-variation-settings:'wdth' 88.2, 'wght' 700;opacity:1;fill:#9959b3;fill-opacity:1;stroke:none;stroke-width:0.265;stroke-dasharray:none;paint-order:markers stroke fill"
       d="m 110.53847,30.087569 c -3.2e-4,0 -0.001,0.152487 -0.001,0.342098 V 139.74548 c 0,0.18961 7.4e-4,0.34209 0.001,0.34209 h 27.96315 c -1.9304,-3.14165 -2.95448,-6.75595 -2.95899,-10.44329 -1.6e-4,-11.04308 8.95208,-19.99532 19.99516,-19.99516 11.04288,1.3e-4 19.99481,8.95228 19.99465,19.99516 -0.005,3.68734 -1.02859,7.30164 -2.95899,10.44329 h 27.96366 c 3.3e-4,0 5.2e-4,-0.15248 5.2e-4,-0.34209 v -28.04119 c -3.58994,-8e-5 -6.50007,-2.91044 -6.49986,-6.50038 8e-5,-3.58974 2.91012,-6.49978 6.49986,-6.499857 V 98.516467 C 194.52292,82.799311 176.65137,79.716333 155.53779,80.088135 V 47.300244 c -7.79626,-9.89498 -16.44682,-18.36134 -44.99932,-17.212675 z" />
    <circle
       style="font-variation-settings:'wdth' 88.2, 'wght' 700;display:none;opacity:1;fill:#0000ff;fill-opacity:1;stroke:none;stroke-width:1;paint-order:markers stroke fill"
       id="circle4"
       cx="155.53766"
       cy="129.64421"
       r="19.994877" />
    <circle
       style="font-variation-settings:'wdth' 88.2, 'wght' 700;display:none;opacity:1;fill:#0000ff;fill-opacity:1;stroke:none;stroke-width:1;paint-order:markers stroke fill"
       id="circle5"
       cx="56.12899"
       cy="129.64421"
       r="19.994877" />
    <g
       id="g7"
       style="display:inline;fill:#ffffff;fill-opacity:1">
      <circle
         style="font-variation-settings:'wdth' 88.2, 'wght' 700;display:inline;opacity:1;fill:none;fill-opacity:1;stroke:#9959b3;stroke-width:3;stroke-dasharray:none;stroke-opacity:1;paint-order:markers stroke fill"
         id="circle7"
         cx="56.12899"
         cy="129.64421"
         r="12" />
      <circle
         style="font-variation-settings:'wdth' 88.2, 'wght' 700;display:inline;opacity:1;fill:#9959b3;fill-opacity:1;stroke:none;stroke-width:0.250064;paint-order:markers stroke fill"
         id="circle6"
         cx="56.12899"
         cy="129.64421"
         r="5" />
      <path
         id="path7"
         style="font-variation-settings:'wdth' 88.2, 'wght' 700;display:inline;opacity:1;fill:#9959b3;fill-opacity:1;stroke:none;stroke-width:1;paint-order:markers stroke fill"
         d="m 40.19703,141.70556 a 19.994877,19.994877 0 0 0 15.931844,7.93337 19.994877,19.994877 0 0 0 15.931844,-7.93337 H 68.08525 a 16.995001,16.995001 0 0 1 -11.956376,4.93355 16.995001,16.995001 0 0 1 -11.956376,-4.93355 z" />
    </g>
    <g
       id="g9"
       transform="translate(99.408785)"
       style="display:inline;fill:#ffffff;fill-opacity:1">
      <circle
         style="font-variation-settings:'wdth' 88.2, 'wght' 700;display:inline;opacity:1;fill:none;fill-opacity:1;stroke:#9959b3;stroke-width:3;stroke-dasharray:none;stroke-opacity:1;paint-order:markers stroke fill"
         id="circle9"
         cx="56.12899"
         cy="129.64421"
         r="12" />
      <circle
         style="font-variation-settings:'wdth' 88.2, 'wght' 700;display:inline;opacity:1;fill:#9959b3;fill-opacity:1;stroke:none;stroke-width:0.250064;paint-order:markers stroke fill"
         id="circle8"
         cx="56.12899"
         cy="129.64421"
         r="5" />
      <path
         id="path9"
         style="font-variation-settings:'wdth' 88.2, 'wght' 700;display:inline;opacity:1;fill:#9959b3;fill-opacity:1;stroke:none;stroke-width:1;paint-order:markers stroke fill"
         d="m 40.19703,141.70556 a 19.994877,19.994877 0 0 0 15.931844,7.93337 19.994877,19.994877 0 0 0 15.931844,-7.93337 H 68.08525 a 16.995001,16.995001 0 0 1 -11.956376,4.93355 16.995001,16.995001 0 0 1 -11.956376,-4.93355 z" />
      <text
         xml:space="preserve"
         transform="matrix(0.26458333,0,0,0.26458333,-100.70199,0)"
         id="text9"
         style="font-style:normal;font-variant:normal;font-weight:normal;font-stretch:normal;font-size:158.667px;font-family:BLACKPLOTAN;-inkscape-font-specification:'BLACKPLOTAN, Normal';font-variant-ligatures:normal;font-variant-caps:normal;font-variant-numeric:normal;font-variant-east-asian:normal;white-space:pre;shape-inside:url(#rect12);display:none;opacity:1;fill:#ffffff;fill-opacity:1;stroke:none;stroke-width:3.77953;stroke-opacity:1;paint-order:markers stroke fill"><tspan
           x="42.425781"
           y="901.36024"
           id="tspan5"><tspan
             dx="0 119.23268 43.540451 62.521622 82.664902 100.40646 119.2327 43.540466 92.349121 94.518433"
             id="tspan4">HitchHiker</tspan></tspan></text>
    </g>
    <rect
       style="font-variation-settings:'wdth' 88.2, 'wght' 700;display:none;opacity:1;fill:#0000ff;fill-opacity:1;stroke:none;stroke-width:2.74163;stroke-dasharray:none;stroke-opacity:1;paint-order:markers stroke fill"
       id="rect9"
       width="35.990002"
       height="50"
       x="38.134132"
       y="30.087999"
       rx="0.00062346464"
       ry="0.26638448" />
    <path
       id="path10"
       style="font-variation-settings:'wdth' 88.2, 'wght' 700;display:none;opacity:1;fill:#d52a2a;fill-opacity:1;stroke:none;stroke-width:0.831156;paint-order:markers stroke fill"
       d="m 11.129553,30.087569 c -3.22e-4,0 -5.17e-4,0.152487 -5.17e-4,0.342098 v 24.53442 A 50,50 0 0 1 38.134623,30.11134 c 2.8e-5,-0.0017 -3e-5,-0.02325 0,-0.02325 h 0.06563 a 50,50 0 0 1 0.0016,-5.17e-4 z" />
    <path
       style="font-variation-settings:'wdth' 88.2, 'wght' 700;display:none;opacity:0.343096;fill:#ff6600;fill-opacity:1;stroke:none;stroke-width:8.34318;stroke-dasharray:none;stroke-opacity:1;paint-order:markers stroke fill"
       d="m 155.53763,30.087999 h 45 v 50 h -45"
       id="path11" />
    <circle
       style="font-variation-settings:'wdth' 88.2, 'wght' 700;display:none;opacity:0.343096;fill:#ff6600;fill-opacity:1;stroke:none;stroke-width:2.91884;stroke-dasharray:none;stroke-opacity:1;paint-order:markers stroke fill"
       id="circle11"
       cx="200.53799"
       cy="105.20415"
       r="6.5" />
    <path
       id="path12"
       style="font-variation-settings:'wdth' 88.2, 'wght' 700;display:inline;opacity:1;fill:#9959b3;fill-opacity:1;stroke:none;stroke-width:0.265;stroke-dasharray:none;stroke-opacity:1;paint-order:markers stroke fill"
       d="m 202.06725,99.019796 v 3.932064 a 2,3.5 0 0 1 0.47077,2.25205 2,3.5 0 0 1 -0.47077,2.25568 v 3.93309 a 5,6.5 0 0 0 3.47059,-6.18877 5,6.5 0 0 0 -3.47059,-6.184114 z" />
  </g>
</svg>
