<?xml version="1.0" encoding="UTF-8" standalone="no"?>
<!-- Created with Inkscape (http://www.inkscape.org/) -->

<svg
   width="800"
   height="800"
   viewBox="0 0 211.66666 211.66667"
   version="1.1"
   id="svg5"
   xmlns="http://www.w3.org/2000/svg"
   xmlns:svg="http://www.w3.org/2000/svg">
  <defs
     id="defs2">
    <rect
       x="42.426407"
       y="544.47223"
       width="726.90576"
       height="212.13203"
       id="rect1288" />
    <rect
       x="42.426407"
       y="544.47223"
       width="726.90576"
       height="212.13203"
       id="rect12" />
  </defs>
  <rect
     style="display:none;opacity:1;fill:#80ffe6;fill-opacity:1;stroke:#9959b3;stroke-width:0.264583;stroke-opacity:1"
     id="rect2"
     width="295.80417"
     height="249.76666"
     x="-44.714584"
     y="-18.520832" />
  <g
     id="layer1"
     style="display:inline">
    <rect
       style="font-variation-settings:'wdth' 88.2, 'wght' 700;display:none;opacity:0.274052;fill:#000000;stroke:none;stroke-width:0.175222;paint-order:markers stroke fill"
       id="rect234"
       width="249.82478"
       height="0.82477927"
       x="-19.07939"
       y="140.08762"
       rx="0.00077282818"
       ry="0.37247565" />
    <path
       id="rect400"
       style="font-variation-settings:'wdth' 88.2, 'wght' 700;display:inline;opacity:1;fill:#ffffff;fill-opacity:1;stroke:none;stroke-width:0.265;stroke-dasharray:none;paint-order:markers stroke fill"
       d="m 33.61435,30.087569 c -6.426524,0 -22.485314,9.125708 -22.485314,26.247503 v 83.410408 c 0,0.18961 1.95e-4,0.34209 5.17e-4,0.34209 h 27.963668 c -1.93041,-3.14166 -2.954477,-6.75595 -2.958992,-10.44329 -1.56e-4,-11.04289 8.951759,-19.99503 19.994645,-19.99516 11.043087,-1.6e-4 19.995318,8.95207 19.995162,19.99516 -0.0045,3.68734 -1.028583,7.30163 -2.958993,10.44329 h 27.963147 c 3.3e-4,0 10e-4,-0.15248 10e-4,-0.34209 V 30.429667 c 0,-0.189611 -7.1e-4,-0.342098 -10e-4,-0.342098 z m 4.520273,5.17e-4 h 35.989018 c 3.45e-4,0 5.17e-4,0.118557 5.17e-4,0.266134 v 49.467264 c 0,0.147577 -1.72e-4,0.266651 -5.17e-4,0.266651 H 38.134623 c -3.45e-4,0 -5.17e-4,-0.119074 -5.17e-4,-0.266651 V 30.35422 c 0,-0.147577 1.72e-4,-0.266134 5.17e-4,-0.266134 z" />
    <rect
       style="font-variation-settings:'wdth' 88.2, 'wght' 700;display:none;opacity:0.274052;fill:#000000;stroke:none;stroke-width:0.591319;paint-order:markers stroke fill"
       id="rect402"
       width="249.40869"
       height="9.4086809"
       x="-230.53767"
       y="101.12899"
       rx="0.00077154097"
       ry="4.2490211"
       transform="rotate(-90)" />
    <path
       id="rect958"
       style="font-variation-settings:'wdth' 88.2, 'wght' 700;opacity:1;fill:#ffffff;fill-opacity:1;stroke:none;stroke-width:0.265;stroke-dasharray:none;paint-order:markers stroke fill"
       d="m 110.53847,30.087569 c -3.2e-4,0 -0.001,0.152487 -0.001,0.342098 V 139.74548 c 0,0.18961 7.4e-4,0.34209 0.001,0.34209 h 27.96315 c -1.9304,-3.14165 -2.95448,-6.75595 -2.95899,-10.44329 -1.6e-4,-11.04308 8.95208,-19.99532 19.99516,-19.99516 11.04288,1.3e-4 19.99481,8.95228 19.99465,19.99516 -0.005,3.68734 -1.02859,7.30164 -2.95899,10.44329 h 27.96366 c 3.3e-4,0 5.2e-4,-0.15248 5.2e-4,-0.34209 v -28.04119 c -3.58994,-8e-5 -6.50007,-2.91044 -6.49986,-6.50038 8e-5,-3.58974 2.91012,-6.49978 6.49986,-6.499857 V 98.516467 C 194.52292,82.799311 176.65137,79.716333 155.53779,80.088135 V 47.300244 c -7.79626,-9.89498 -16.44682,-18.36134 -44.99932,-17.212675 z" />
    <circle
       style="font-variation-settings:'wdth' 88.2, 'wght' 700;display:none;opacity:1;fill:#0000ff;fill-opacity:1;stroke:none;stroke-width:1;paint-order:markers stroke fill"
       id="path1064"
       cx="155.53766"
       cy="129.64421"
       r="19.994877" />
    <circle
       style="font-variation-settings:'wdth' 88.2, 'wght' 700;display:none;opacity:1;fill:#0000ff;fill-opacity:1;stroke:none;stroke-width:1;paint-order:markers stroke fill"
       id="circle1077"
       cx="56.12899"
       cy="129.64421"
       r="19.994877" />
    <g
       id="g1372"
       style="display:inline;fill:#ffffff;fill-opacity:1">
      <circle
         style="font-variation-settings:'wdth' 88.2, 'wght' 700;display:inline;opacity:1;fill:#ffffff;fill-opacity:1;stroke:none;stroke-width:0.250064;paint-order:markers stroke fill"
         id="circle1089"
         cx="56.12899"
         cy="129.64421"
         r="5" />
      <circle
         style="font-variation-settings:'wdth' 88.2, 'wght' 700;display:inline;opacity:1;fill:none;fill-opacity:1;stroke:#ffffff;stroke-width:3;stroke-dasharray:none;stroke-opacity:1;paint-order:markers stroke fill"
         id="circle1091"
         cx="56.12899"
         cy="129.64421"
         r="12" />
      <path
         id="circle1093"
         style="font-variation-settings:'wdth' 88.2, 'wght' 700;display:inline;opacity:1;fill:#ffffff;fill-opacity:1;stroke:none;stroke-width:1;paint-order:markers stroke fill"
         d="m 40.19703,141.70556 a 19.994877,19.994877 0 0 0 15.931844,7.93337 19.994877,19.994877 0 0 0 15.931844,-7.93337 H 68.08525 a 16.995001,16.995001 0 0 1 -11.956376,4.93355 16.995001,16.995001 0 0 1 -11.956376,-4.93355 z" />
    </g>
    <g
       id="g1380"
       transform="translate(99.408785)"
       style="display:inline;fill:#ffffff;fill-opacity:1">
      <circle
         style="font-variation-settings:'wdth' 88.2, 'wght' 700;display:inline;opacity:1;fill:#ffffff;fill-opacity:1;stroke:none;stroke-width:0.250064;paint-order:markers stroke fill"
         id="circle1374"
         cx="56.12899"
         cy="129.64421"
         r="5" />
      <circle
         style="font-variation-settings:'wdth' 88.2, 'wght' 700;display:inline;opacity:1;fill:none;fill-opacity:1;stroke:#ffffff;stroke-width:3;stroke-dasharray:none;stroke-opacity:1;paint-order:markers stroke fill"
         id="circle1376"
         cx="56.12899"
         cy="129.64421"
         r="12" />
      <path
         id="path1378"
         style="font-variation-settings:'wdth' 88.2, 'wght' 700;display:inline;opacity:1;fill:#ffffff;fill-opacity:1;stroke:none;stroke-width:1;paint-order:markers stroke fill"
         d="m 40.19703,141.70556 a 19.994877,19.994877 0 0 0 15.931844,7.93337 19.994877,19.994877 0 0 0 15.931844,-7.93337 H 68.08525 a 16.995001,16.995001 0 0 1 -11.956376,4.93355 16.995001,16.995001 0 0 1 -11.956376,-4.93355 z" />
      <text
         xml:space="preserve"
         transform="matrix(0.26458333,0,0,0.26458333,-100.70199,0)"
         id="text1286"
         style="font-style:normal;font-variant:normal;font-weight:normal;font-stretch:normal;font-size:158.667px;font-family:BLACKPLOTAN;-inkscape-font-specification:'BLACKPLOTAN, Normal';font-variant-ligatures:normal;font-variant-caps:normal;font-variant-numeric:normal;font-variant-east-asian:normal;white-space:pre;shape-inside:url(#rect1288);display:none;opacity:1;fill:#ffffff;fill-opacity:1;stroke:none;stroke-width:3.77953;stroke-opacity:1;paint-order:markers stroke fill"><tspan
           x="42.425781"
           y="901.36024"
           id="tspan6"><tspan
             dx="0 119.23268 43.540451 62.521622 82.664902 100.40646 119.2327 43.540466 92.349121 94.518433"
             id="tspan2">HitchHiker</tspan></tspan></text>
    </g>
    <rect
       style="font-variation-settings:'wdth' 88.2, 'wght' 700;display:none;opacity:1;fill:#0000ff;fill-opacity:1;stroke:none;stroke-width:2.74163;stroke-dasharray:none;stroke-opacity:1;paint-order:markers stroke fill"
       id="rect1486"
       width="35.990002"
       height="50"
       x="38.134132"
       y="30.087999"
       rx="0.00062346464"
       ry="0.26638448" />
    <path
       id="path1656"
       style="font-variation-settings:'wdth' 88.2, 'wght' 700;display:none;opacity:1;fill:#d52a2a;fill-opacity:1;stroke:none;stroke-width:0.831156;paint-order:markers stroke fill"
       d="m 11.129553,30.087569 c -3.22e-4,0 -5.17e-4,0.152487 -5.17e-4,0.342098 v 24.53442 A 50,50 0 0 1 38.134623,30.11134 c 2.8e-5,-0.0017 -3e-5,-0.02325 0,-0.02325 h 0.06563 a 50,50 0 0 1 0.0016,-5.17e-4 z" />
    <path
       style="font-variation-settings:'wdth' 88.2, 'wght' 700;display:none;opacity:0.343096;fill:#ff6600;fill-opacity:1;stroke:none;stroke-width:8.34318;stroke-dasharray:none;stroke-opacity:1;paint-order:markers stroke fill"
       d="m 155.53763,30.087999 h 45 v 50 h -45"
       id="path1836" />
    <circle
       style="font-variation-settings:'wdth' 88.2, 'wght' 700;display:none;opacity:0.343096;fill:#ff6600;fill-opacity:1;stroke:none;stroke-width:2.91884;stroke-dasharray:none;stroke-opacity:1;paint-order:markers stroke fill"
       id="path1893"
       cx="200.53799"
       cy="105.20415"
       r="6.5" />
    <path
       id="circle1907"
       style="font-variation-settings:'wdth' 88.2, 'wght' 700;display:inline;opacity:1;fill:#ffffff;fill-opacity:1;stroke:none;stroke-width:0.265;stroke-dasharray:none;stroke-opacity:1;paint-order:markers stroke fill"
       d="m 202.06725,99.019796 v 3.932064 a 2,3.5 0 0 1 0.47077,2.25205 2,3.5 0 0 1 -0.47077,2.25568 v 3.93309 a 5,6.5 0 0 0 3.47059,-6.18877 5,6.5 0 0 0 -3.47059,-6.184114 z" />
    <path
       style="font-size:30.6917px;font-family:'Showcard Gothic';-inkscape-font-specification:'Showcard Gothic, Normal';fill:#ffffff;fill-opacity:1;stroke-width:0.265"
       d="m 29.471245,154.94566 q -0.254765,3.6866 -0.674378,12.00393 -0.11989,3.95635 -0.419614,11.01484 h -7.642952 l -0.164848,-5.03536 q -0.269751,0.0899 -1.093991,0.4346 -0.974102,0.41962 -1.378729,0.67438 l -0.779282,-1.8433 q -0.239778,-0.59945 -0.794267,-1.69344 l -0.149862,7.46312 H 7.9361017 L 7.5015025,166.94959 Q 7.3666268,162.64855 6.8271243,154.94566 H 17.347424 l -0.704351,14.17692 q 1.093992,0.10491 2.098066,0.06 0.644405,-0.015 1.738397,-0.11989 L 19.71524,154.94566 Z m 11.629277,0 -0.584461,12.24371 q -0.164848,3.95635 -0.389641,10.77506 h -8.407248 l -1.01906,-23.01877 z m 19.526996,0 -0.434599,9.42631 q -0.584461,-0.0899 -1.873273,-0.2248 -0.794268,-0.045 -2.577623,-0.0899 -0.08992,0.88418 -0.31471,4.27106 -0.164848,3.28197 -0.539503,9.63611 h -7.253311 q -0.11989,-3.02721 -0.449586,-9.51622 -0.149862,-2.24793 -0.31471,-4.39095 l -2.367816,0.0899 -2.143024,0.2248 -0.374655,-9.42631 z m 17.818569,9.42631 q -0.82424,-0.25477 -2.113051,-0.25477 -2.397789,0 -3.896407,1.25884 -1.693439,1.4087 -1.693439,4.06125 0,2.0681 1.33377,3.40187 1.348757,1.31878 3.521753,1.31878 1.483632,0 2.817402,-0.73432 -0.149862,0.61443 -0.50953,2.26291 -0.209807,1.09399 -0.404627,2.2779 -1.678452,0.64441 -4.301034,0.64441 -4.75062,0 -8.122511,-3.19206 -3.656628,-3.47679 -3.656628,-9.05165 0,-5.15525 3.147098,-8.33232 3.356905,-3.38688 9.276447,-3.38688 2.847374,0 4.1212,0.3297 z M 102.394,154.94566 q -0.25476,3.6866 -0.67437,12.00393 -0.11989,3.95635 -0.41962,11.01484 h -7.642949 l -0.164848,-5.03536 q -0.269751,0.0899 -1.093991,0.4346 -0.974102,0.41962 -1.378729,0.67438 l -0.779282,-1.8433 q -0.239778,-0.59945 -0.794267,-1.69344 l -0.149862,7.46312 h -8.43722 l -0.4346,-11.01484 q -0.134875,-4.30104 -0.674378,-12.00393 h 10.5203 l -0.704351,14.17692 q 1.093992,0.10491 2.098066,0.06 0.644405,-0.015 1.738397,-0.11989 L 92.638,154.94566 Z m 30.01733,0 q -0.25476,3.6866 -0.67438,12.00393 -0.11989,3.95635 -0.41961,11.01484 h -7.64295 l -0.16485,-5.03536 q -0.26975,0.0899 -1.09399,0.4346 -0.9741,0.41962 -1.37873,0.67438 l -0.77928,-1.8433 q -0.23978,-0.59945 -0.79427,-1.69344 l -0.14986,7.46312 h -8.43722 l -0.4346,-11.01484 q -0.13488,-4.30104 -0.67438,-12.00393 h 10.5203 l -0.70435,14.17692 q 1.09399,0.10491 2.09807,0.06 0.6444,-0.015 1.73839,-0.11989 l -0.76429,-14.11698 z m 11.62928,0 -0.58446,12.24371 q -0.16485,3.95635 -0.38965,10.77506 h -8.40724 l -1.01906,-23.01877 z m 23.01877,1.19889 q -0.82424,1.52859 -3.37189,6.44406 -1.39371,2.7125 -3.83646,7.23833 0.20981,0.32969 2.42776,2.77244 1.3038,1.39371 3.70159,3.55172 -1.00407,0.4346 -3.28197,1.4087 -1.27383,0.56948 -3.5817,1.66347 -0.56948,-0.68936 -2.33785,-3.22203 -0.98908,-1.49862 -1.90324,-3.19205 h -0.0599 l -0.14986,5.15524 h -8.28736 l -0.40462,-11.97396 q -0.16485,-3.92638 -0.70435,-11.04481 h 10.43038 l -0.58446,10.10068 h 0.1049 q 0.62942,-1.76837 2.02314,-5.82962 0.56947,-1.76837 1.46864,-4.85552 l 4.24109,0.92914 q 2.06809,0.44958 4.10621,0.85421 z m 16.36492,-1.19889 -0.64441,9.48625 q -0.55449,-0.0899 -2.39779,-0.31471 -1.25884,-0.11989 -2.75746,-0.14986 l -0.22479,2.86236 q 1.64848,0.045 5.38004,-0.0749 -0.16485,0.55449 -0.52452,2.06809 -0.2098,0.91416 -0.37465,2.11305 -0.4346,-0.1049 -2.173,-0.26975 -0.80925,-0.045 -2.39779,-0.03 l -0.14986,3.34192 q 1.12397,-0.015 4.13619,-0.19482 0.56947,-0.045 1.87327,-0.35967 -0.11989,0.46457 -0.55449,2.23294 -0.2098,0.91416 -0.50953,2.30787 h -13.41263 l -0.4346,-11.74916 q -0.11989,-4.03129 -0.58446,-11.26961 z m 21.41524,8.61705 q 0,2.75746 -1.54358,4.8855 -1.36374,1.85828 -3.41685,2.66754 0.4346,0.67437 2.14303,2.83239 0.85421,0.98908 2.60759,2.60759 -0.70435,0.25477 -3.10214,1.28881 -1.67845,0.7643 -3.16208,1.49862 -0.4346,-0.5395 -1.93322,-2.78743 -0.68936,-1.13895 -2.02314,-3.83646 h -0.03 l -0.14986,5.24516 h -8.43722 q -0.16485,-3.26699 -0.46457,-10.77506 -0.13488,-4.42093 -0.61443,-12.24371 4.1212,-0.4346 7.52306,-0.4346 12.60338,0 12.60338,9.05165 z m -6.80373,3.23702 q 0,-1.42369 -1.19889,-2.03812 -0.88419,-0.44959 -2.21796,-0.38964 l -0.0899,5.12527 q 1.24386,0 2.21796,-0.55449 1.28881,-0.71934 1.28881,-2.14302 z"
       id="text2"
       aria-label="Hitch Hiker" />
  </g>
  <g
     id="g12"
     transform="translate(-1.129036,16.022451)"
     style="display:none">
    <rect
       style="font-variation-settings:'wdth' 88.2, 'wght' 700;display:none;opacity:0.274052;fill:#000000;stroke:none;stroke-width:0.175222;paint-order:markers stroke fill"
       id="rect3"
       width="249.82478"
       height="0.82477927"
       x="-19.07939"
       y="140.08762"
       rx="0.00077282818"
       ry="0.37247565" />
    <path
       id="path3"
       style="font-variation-settings:'wdth' 88.2, 'wght' 700;display:inline;opacity:1;fill:#9959b3;fill-opacity:1;stroke:none;stroke-width:0.265;stroke-dasharray:none;paint-order:markers stroke fill"
       d="m 33.61435,30.087569 c -6.426524,0 -22.485314,9.125708 -22.485314,26.247503 v 83.410408 c 0,0.18961 1.95e-4,0.34209 5.17e-4,0.34209 h 27.963668 c -1.93041,-3.14166 -2.954477,-6.75595 -2.958992,-10.44329 -1.56e-4,-11.04289 8.951759,-19.99503 19.994645,-19.99516 11.043087,-1.6e-4 19.995318,8.95207 19.995162,19.99516 -0.0045,3.68734 -1.028583,7.30163 -2.958993,10.44329 h 27.963147 c 3.3e-4,0 10e-4,-0.15248 10e-4,-0.34209 V 30.429667 c 0,-0.189611 -7.1e-4,-0.342098 -10e-4,-0.342098 z m 4.520273,5.17e-4 h 35.989018 c 3.45e-4,0 5.17e-4,0.118557 5.17e-4,0.266134 v 49.467264 c 0,0.147577 -1.72e-4,0.266651 -5.17e-4,0.266651 H 38.134623 c -3.45e-4,0 -5.17e-4,-0.119074 -5.17e-4,-0.266651 V 30.35422 c 0,-0.147577 1.72e-4,-0.266134 5.17e-4,-0.266134 z" />
    <rect
       style="font-variation-settings:'wdth' 88.2, 'wght' 700;display:none;opacity:0.274052;fill:#000000;stroke:none;stroke-width:0.591319;paint-order:markers stroke fill"
       id="rect4"
       width="249.40869"
       height="9.4086809"
       x="-230.53767"
       y="101.12899"
       rx="0.00077154097"
       ry="4.2490211"
       transform="rotate(-90)" />
    <path
       id="path4"
       style="font-variation-settings:'wdth' 88.2, 'wght' 700;opacity:1;fill:#9959b3;fill-opacity:1;stroke:none;stroke-width:0.265;stroke-dasharray:none;paint-order:markers stroke fill"
       d="m 110.53847,30.087569 c -3.2e-4,0 -0.001,0.152487 -0.001,0.342098 V 139.74548 c 0,0.18961 7.4e-4,0.34209 0.001,0.34209 h 27.96315 c -1.9304,-3.14165 -2.95448,-6.75595 -2.95899,-10.44329 -1.6e-4,-11.04308 8.95208,-19.99532 19.99516,-19.99516 11.04288,1.3e-4 19.99481,8.95228 19.99465,19.99516 -0.005,3.68734 -1.02859,7.30164 -2.95899,10.44329 h 27.96366 c 3.3e-4,0 5.2e-4,-0.15248 5.2e-4,-0.34209 v -28.04119 c -3.58994,-8e-5 -6.50007,-2.91044 -6.49986,-6.50038 8e-5,-3.58974 2.91012,-6.49978 6.49986,-6.499857 V 98.516467 C 194.52292,82.799311 176.65137,79.716333 155.53779,80.088135 V 47.300244 c -7.79626,-9.89498 -16.44682,-18.36134 -44.99932,-17.212675 z" />
    <circle
       style="font-variation-settings:'wdth' 88.2, 'wght' 700;display:none;opacity:1;fill:#0000ff;fill-opacity:1;stroke:none;stroke-width:1;paint-order:markers stroke fill"
       id="circle4"
       cx="155.53766"
       cy="129.64421"
       r="19.994877" />
    <circle
       style="font-variation-settings:'wdth' 88.2, 'wght' 700;display:none;opacity:1;fill:#0000ff;fill-opacity:1;stroke:none;stroke-width:1;paint-order:markers stroke fill"
       id="circle5"
       cx="56.12899"
       cy="129.64421"
       r="19.994877" />
    <g
       id="g7"
       style="display:inline;fill:#ffffff;fill-opacity:1">
      <circle
         style="font-variation-settings:'wdth' 88.2, 'wght' 700;display:inline;opacity:1;fill:none;fill-opacity:1;stroke:#9959b3;stroke-width:3;stroke-dasharray:none;stroke-opacity:1;paint-order:markers stroke fill"
         id="circle7"
         cx="56.12899"
         cy="129.64421"
         r="12" />
      <circle
         style="font-variation-settings:'wdth' 88.2, 'wght' 700;display:inline;opacity:1;fill:#9959b3;fill-opacity:1;stroke:none;stroke-width:0.250064;paint-order:markers stroke fill"
         id="circle6"
         cx="56.12899"
         cy="129.64421"
         r="5" />
      <path
         id="path7"
         style="font-variation-settings:'wdth' 88.2, 'wght' 700;display:inline;opacity:1;fill:#9959b3;fill-opacity:1;stroke:none;stroke-width:1;paint-order:markers stroke fill"
         d="m 40.19703,141.70556 a 19.994877,19.994877 0 0 0 15.931844,7.93337 19.994877,19.994877 0 0 0 15.931844,-7.93337 H 68.08525 a 16.995001,16.995001 0 0 1 -11.956376,4.93355 16.995001,16.995001 0 0 1 -11.956376,-4.93355 z" />
    </g>
    <g
       id="g9"
       transform="translate(99.408785)"
       style="display:inline;fill:#ffffff;fill-opacity:1">
      <circle
         style="font-variation-settings:'wdth' 88.2, 'wght' 700;display:inline;opacity:1;fill:none;fill-opacity:1;stroke:#9959b3;stroke-width:3;stroke-dasharray:none;stroke-opacity:1;paint-order:markers stroke fill"
         id="circle9"
         cx="56.12899"
         cy="129.64421"
         r="12" />
      <circle
         style="font-variation-settings:'wdth' 88.2, 'wght' 700;display:inline;opacity:1;fill:#9959b3;fill-opacity:1;stroke:none;stroke-width:0.250064;paint-order:markers stroke fill"
         id="circle8"
         cx="56.12899"
         cy="129.64421"
         r="5" />
      <path
         id="path9"
         style="font-variation-settings:'wdth' 88.2, 'wght' 700;display:inline;opacity:1;fill:#9959b3;fill-opacity:1;stroke:none;stroke-width:1;paint-order:markers stroke fill"
         d="m 40.19703,141.70556 a 19.994877,19.994877 0 0 0 15.931844,7.93337 19.994877,19.994877 0 0 0 15.931844,-7.93337 H 68.08525 a 16.995001,16.995001 0 0 1 -11.956376,4.93355 16.995001,16.995001 0 0 1 -11.956376,-4.93355 z" />
      <text
         xml:space="preserve"
         transform="matrix(0.26458333,0,0,0.26458333,-100.70199,0)"
         id="text9"
         style="font-style:normal;font-variant:normal;font-weight:normal;font-stretch:normal;font-size:158.667px;font-family:BLACKPLOTAN;-inkscape-font-specification:'BLACKPLOTAN, Normal';font-variant-ligatures:normal;font-variant-caps:normal;font-variant-numeric:normal;font-variant-east-asian:normal;white-space:pre;shape-inside:url(#rect12);display:none;opacity:1;fill:#ffffff;fill-opacity:1;stroke:none;stroke-width:3.77953;stroke-opacity:1;paint-order:markers stroke fill"><tspan
           x="42.425781"
           y="901.36024"
           id="tspan8"><tspan
             dx="0 119.23268 43.540451 62.521622 82.664902 100.40646 119.2327 43.540466 92.349121 94.518433"
             id="tspan7">HitchHiker</tspan></tspan></text>
    </g>
    <rect
       style="font-variation-settings:'wdth' 88.2, 'wght' 700;display:none;opacity:1;fill:#0000ff;fill-opacity:1;stroke:none;stroke-width:2.74163;stroke-dasharray:none;stroke-opacity:1;paint-order:markers stroke fill"
       id="rect9"
       width="35.990002"
       height="50"
       x="38.134132"
       y="30.087999"
       rx="0.00062346464"
       ry="0.26638448" />
    <path
       id="path10"
       style="font-variation-settings:'wdth' 88.2, 'wght' 700;display:none;opacity:1;fill:#d52a2a;fill-opacity:1;stroke:none;stroke-width:0.831156;paint-order:markers stroke fill"
       d="m 11.129553,30.087569 c -3.22e-4,0 -5.17e-4,0.152487 -5.17e-4,0.342098 v 24.53442 A 50,50 0 0 1 38.134623,30.11134 c 2.8e-5,-0.0017 -3e-5,-0.02325 0,-0.02325 h 0.06563 a 50,50 0 0 1 0.0016,-5.17e-4 z" />
    <path
       style="font-variation-settings:'wdth' 88.2, 'wght' 700;display:none;opacity:0.343096;fill:#ff6600;fill-opacity:1;stroke:none;stroke-width:8.34318;stroke-dasharray:none;stroke-opacity:1;paint-order:markers stroke fill"
       d="m 155.53763,30.087999 h 45 v 50 h -45"
       id="path11" />
    <circle
       style="font-variation-settings:'wdth' 88.2, 'wght' 700;display:none;opacity:0.343096;fill:#ff6600;fill-opacity:1;stroke:none;stroke-width:2.91884;stroke-dasharray:none;stroke-opacity:1;paint-order:markers stroke fill"
       id="circle11"
       cx="200.53799"
       cy="105.20415"
       r="6.5" />
    <path
       id="path12"
       style="font-variation-settings:'wdth' 88.2, 'wght' 700;display:inline;opacity:1;fill:#9959b3;fill-opacity:1;stroke:none;stroke-width:0.265;stroke-dasharray:none;stroke-opacity:1;paint-order:markers stroke fill"
       d="m 202.06725,99.019796 v 3.932064 a 2,3.5 0 0 1 0.47077,2.25205 2,3.5 0 0 1 -0.47077,2.25568 v 3.93309 a 5,6.5 0 0 0 3.47059,-6.18877 5,6.5 0 0 0 -3.47059,-6.184114 z" />
  </g>
</svg>
